<svg width="241" height="64" viewBox="0 0 241 64" fill="none" xmlns="http://www.w3.org/2000/svg">
<path d="M77.6 50V15.92H84.16L91.04 33.92L97.92 15.92H104.48V50H98.56V26.56L92.8 42.08H89.28L83.52 26.56V50H77.6ZM109.888 50V15.92H115.808V50H109.888ZM130.074 50V23.216H120.666V15.92H145.418V23.216H136.026V50H130.074Z" fill="white"/>
<circle cx="32" cy="32" r="32" fill="#890C25"/>
<g clip-path="url(#clip0_34_2577)">
<path fill-rule="evenodd" clip-rule="evenodd" d="M22.6467 30.6328C23.4232 32.1737 24.1977 33.7161 24.9399 35.2737L26.6086 38.7762C25.1372 38.8256 23.6642 38.8377 22.1948 38.9243C21.6339 38.9574 21.0762 39.0402 20.5225 39.1349C19.7311 39.2703 18.9108 39.4904 18.1533 39.8018C17.1649 40.2082 15.8001 41.1065 15.8288 42.3478C15.8525 43.5661 16.7204 44.4356 17.5569 45.214C18.295 45.9009 19.3666 46.3799 20.2767 46.829C22.1427 47.7497 24.0947 48.5327 26.0432 49.2601C27.3919 49.7637 28.7457 50.152 30.1545 50.4492C30.8123 50.588 31.8614 50.6214 32.196 49.8762C32.4385 49.3306 32.2448 48.723 32.0288 48.2041C31.7527 47.5411 31.4573 46.8842 31.1623 46.2293L29.9514 43.5409C31.8143 43.5741 33.6772 43.6321 35.5405 43.6403C37.0245 43.6473 38.492 43.5623 39.9611 43.3505C41.3406 43.1514 42.982 42.5701 43.7014 41.2806C44.5503 39.759 43.7156 37.8291 42.9012 36.4768C42.5267 35.8548 42.2005 35.2005 41.7772 34.6105L38.9251 30.6352C39.4314 29.9172 39.9592 29.2136 40.4444 28.4806C41.1643 27.3931 41.8721 26.2964 42.5393 25.1753C43.0034 24.3951 43.4349 23.5944 43.8364 22.7802C44.6028 21.227 45.9017 18.6739 44.3166 17.1807C43.3493 16.2696 41.8301 16.2005 40.5805 16.3771C39.2698 16.5623 37.9618 16.7719 36.6596 17.0101C33.2584 17.6323 29.8459 18.7565 26.5277 19.7733C25.3415 20.1369 24.1843 20.59 23.0204 21.0186C22.2364 21.3073 21.4657 21.7203 20.7201 22.1218C20.2743 22.3617 19.8305 22.7021 19.5624 23.1386C19.4029 23.3981 19.4537 23.7786 19.5075 24.0627C19.6125 24.6169 19.8473 25.1374 20.0804 25.6471L22.6467 30.6328ZM34.1923 21.8787C35.4104 21.6447 36.6291 21.4134 37.851 21.2003C38.2375 21.1329 39.2023 20.9037 39.4235 21.3667C39.7333 22.0164 38.8852 23.1216 38.588 23.6636C38.3336 24.1274 38.0638 24.5828 37.8003 25.0412L36.3977 27.4828L34.259 25.0955L32.1535 23.0235L31.6079 22.5726L31.4239 22.4352C32.3466 22.2497 33.2679 22.0563 34.1923 21.8787ZM30.3678 23.9286C30.3923 23.9266 30.416 23.9498 30.431 23.9678L30.502 24.0564C30.6367 24.2571 30.7593 24.4628 30.8862 24.6683C31.4529 25.587 32.0193 26.5064 32.5866 27.4247C32.9624 28.033 33.3402 28.6404 33.716 29.249L34.4583 30.452L34.5228 30.5609C33.9876 31.4412 33.4659 32.3297 32.9171 33.2016C32.4888 33.8825 32.0392 34.5504 31.5919 35.2191C31.3991 35.5063 31.0907 35.909 30.6959 35.8606C29.9319 35.7668 29.6828 34.5705 29.5983 33.9609C29.553 33.6343 29.5124 33.3065 29.4891 32.9776C29.4469 32.3837 29.3874 31.7885 29.4018 31.1931C29.4217 30.373 29.4267 29.5525 29.4613 28.7329C29.482 28.2432 29.4955 27.7511 29.5676 27.2662C29.6667 26.597 29.7658 25.9277 29.865 25.2585C29.9072 24.9737 29.9975 24.6963 30.0825 24.4217C30.1274 24.303 30.1759 24.1885 30.2311 24.0743C30.2311 24.0743 30.303 23.9342 30.3678 23.9286ZM29.2522 44.7164C29.6387 45.656 30.0424 46.6163 30.3025 47.6104C30.336 47.738 30.36 47.8683 30.3772 47.999C30.3914 48.1061 30.3932 48.2148 30.3966 48.3227C30.3981 48.3523 30.3552 48.3819 30.3293 48.3854C30.2757 48.3927 30.2218 48.3621 30.1777 48.3352C29.0438 47.6565 27.9137 46.9704 26.7775 46.2957L22.3376 43.6601L22.2007 43.575L22.3069 43.5529L22.7368 43.5057C23.5683 43.4846 24.3994 43.4267 25.2309 43.4419L28.7526 43.506C28.9192 43.9094 29.0861 44.3126 29.2522 44.7164ZM38.3328 38.7185C38.155 38.8744 37.8726 38.9159 37.6461 38.9449C37.3576 38.9816 37.0676 39.0237 36.7769 39.0244C35.7736 39.0266 34.7701 39.0455 33.767 39.0308C33.076 39.0208 32.3855 38.9803 31.6952 38.9503L27.679 38.7765C27.446 38.2763 27.2132 37.7756 26.9796 37.2758L23.9918 30.8852C23.3381 29.4126 22.6689 27.9466 22.0305 26.4673C21.9103 26.1884 21.817 25.8985 21.7166 25.612C21.6161 25.325 21.4774 24.9322 21.6278 24.6365C21.7596 24.3816 22.0707 24.2704 22.3278 24.1902C22.4603 24.1489 22.5959 24.1162 22.7325 24.0906C23.8484 23.8808 24.9674 23.6881 26.0844 23.4837L29.097 22.9322L28.9769 23.2791L28.8321 23.9369L28.8247 23.9784C28.7219 25.1082 28.5788 26.2347 28.5158 27.3673C28.4436 28.6689 28.4308 29.9736 28.4194 31.2771C28.4141 31.8879 28.4278 32.4996 28.4655 33.1091C28.4987 33.6399 28.5449 34.172 28.6321 34.6968C28.7086 35.1584 28.8262 35.6134 28.9558 36.0632C29.1479 36.7303 29.508 37.3886 30.0841 37.7974C30.2823 37.9381 30.5074 38.042 30.7448 38.0951C31.4956 38.2637 32.2895 37.8845 32.8773 37.4467C33.5009 36.9823 34.1725 36.4527 34.6953 35.854L36.4612 33.831C36.8088 34.4374 37.184 35.0291 37.5042 35.6504C37.8173 36.2572 38.0804 36.8887 38.3591 37.5122C38.501 37.8298 38.6388 38.347 38.3934 38.655C38.3753 38.678 38.3549 38.6991 38.3328 38.7185Z" fill="white"/>
</g>
<defs>
<clipPath id="clip0_34_2577">
<rect width="38.4" height="38.4" fill="white" transform="translate(27.25 5.11719) rotate(35.1898)"/>
</clipPath>
</defs>
</svg>
