<svg width="142" height="50" viewBox="0 0 142 50" fill="none" xmlns="http://www.w3.org/2000/svg">
<path d="M59.896 34V16.96H64.392L68.712 27.376L73.032 16.96H77.528V34H74.04V22.768L70.296 31.744H67.128L63.384 22.768V34H59.896ZM80.9004 34V16.96H84.3884V34H80.9004ZM93.1706 34V20.272H86.9386V16.96H102.883V20.272H96.6586V34H93.1706Z" fill="#00001B"/>
<circle cx="25" cy="25" r="25" fill="#890C25"/>
<g clip-path="url(#clip0_34_14899)">
<path fill-rule="evenodd" clip-rule="evenodd" d="M17.6915 23.9346C18.2982 25.1384 18.9033 26.3434 19.4831 27.5603L20.7868 30.2966C19.6372 30.3352 18.4865 30.3446 17.3384 30.4123C16.9003 30.4381 16.4646 30.5029 16.032 30.5769C15.4137 30.6826 14.7728 30.8545 14.1811 31.0978C13.4088 31.4153 12.3426 32.1172 12.3651 33.0869C12.3836 34.0387 13.0616 34.718 13.7151 35.3261C14.2917 35.8627 15.129 36.237 15.8399 36.5878C17.2978 37.3071 18.8228 37.9189 20.345 38.4872C21.3987 38.8805 22.4564 39.1839 23.557 39.4161C24.0709 39.5246 24.8905 39.5507 25.1519 38.9685C25.3414 38.5422 25.1901 38.0676 25.0213 37.6621C24.8056 37.1442 24.5748 36.6309 24.3443 36.1193L23.3983 34.019C24.8537 34.0449 26.3091 34.0903 27.7648 34.0967C28.9242 34.1021 30.0706 34.0357 31.2184 33.8702C32.2961 33.7147 33.5785 33.2606 34.1405 32.2531C34.8037 31.0644 34.1516 29.5566 33.5154 28.5002C33.2227 28.0142 32.9679 27.5031 32.6372 27.0422L30.409 23.9364C30.8045 23.3755 31.2169 22.8258 31.5959 22.2532C32.1584 21.4035 32.7113 20.5467 33.2326 19.6709C33.5952 19.0613 33.9323 18.4358 34.246 17.7997C34.8447 16.5863 35.8595 14.5917 34.6211 13.4251C33.8654 12.7133 32.6785 12.6594 31.7023 12.7973C30.6783 12.942 29.6564 13.1058 28.6391 13.2918C25.9819 13.7779 23.3159 14.6562 20.7236 15.4506C19.7968 15.7346 18.8928 16.0886 17.9834 16.4235C17.371 16.649 16.7688 16.9717 16.1864 17.2853C15.8381 17.4728 15.4914 17.7387 15.2819 18.0797C15.1573 18.2824 15.197 18.5797 15.239 18.8016C15.3211 19.2346 15.5045 19.6413 15.6866 20.0395L17.6915 23.9346ZM26.7116 17.0955C27.6632 16.9126 28.6153 16.7319 29.5699 16.5654C29.8718 16.5128 30.6256 16.3337 30.7984 16.6955C31.0405 17.203 30.3779 18.0664 30.1456 18.4899C29.9469 18.8522 29.7362 19.208 29.5303 19.5661L28.4345 21.4736L26.7637 19.6085L25.1187 17.9898L24.6924 17.6376L24.5487 17.5302C25.2696 17.3853 25.9894 17.2342 26.7116 17.0955ZM23.7236 18.6969C23.7428 18.6953 23.7613 18.7135 23.773 18.7275L23.8285 18.7967C23.9337 18.9536 24.0295 19.1142 24.1286 19.2748C24.5714 19.9926 25.0138 20.7108 25.4571 21.4282C25.7507 21.9035 26.0458 22.378 26.3394 22.8535L26.9193 23.7933L26.9697 23.8784C26.5516 24.5661 26.144 25.2603 25.7153 25.9414C25.3806 26.4734 25.0294 26.9952 24.6799 27.5176C24.5293 27.742 24.2884 28.0566 23.9799 28.0188C23.3831 27.9455 23.1885 27.0109 23.1224 26.5346C23.087 26.2795 23.0553 26.0234 23.0371 25.7664C23.0041 25.3024 22.9577 24.8374 22.9689 24.3723C22.9845 23.7316 22.9884 23.0906 23.0154 22.4503C23.0316 22.0677 23.0422 21.6832 23.0984 21.3044C23.1759 20.7816 23.2533 20.2587 23.3308 19.7359C23.3638 19.5134 23.4343 19.2967 23.5007 19.0821C23.5358 18.9894 23.5737 18.9 23.6168 18.8107C23.6168 18.8107 23.673 18.7013 23.7236 18.6969ZM22.852 34.9373C23.154 35.6715 23.4694 36.4216 23.6726 37.1983C23.6987 37.298 23.7175 37.3998 23.731 37.5019C23.742 37.5856 23.7434 37.6705 23.7461 37.7548C23.7473 37.7779 23.7138 37.801 23.6935 37.8038C23.6516 37.8094 23.6096 37.7856 23.5751 37.7646C22.6892 37.2343 21.8064 36.6983 20.9187 36.1712L17.45 34.1121L17.3431 34.0457L17.4261 34.0284L17.7619 33.9915C18.4115 33.975 19.0608 33.9298 19.7104 33.9416L22.4617 33.9917C22.5919 34.3069 22.7223 34.6219 22.852 34.9373ZM29.9463 30.2515C29.8074 30.3733 29.5867 30.4057 29.4098 30.4284C29.1844 30.4571 28.9579 30.4899 28.7307 30.4905C27.9469 30.4922 27.1629 30.507 26.3793 30.4955C25.8394 30.4877 25.2999 30.4561 24.7607 30.4326L21.623 30.2968C21.441 29.906 21.2591 29.5149 21.0766 29.1244L18.7424 24.1318C18.2316 22.9813 17.7089 21.8359 17.2101 20.6802C17.1162 20.4624 17.0433 20.2359 16.9649 20.0121C16.8864 19.7879 16.778 19.4809 16.8955 19.25C16.9985 19.0508 17.2415 18.9639 17.4424 18.9013C17.5459 18.869 17.6518 18.8435 17.7586 18.8235C18.6303 18.6596 19.5046 18.509 20.3772 18.3493L22.7308 17.9184L22.637 18.1895L22.5239 18.7034L22.5181 18.7358C22.4377 19.6185 22.3259 20.4986 22.2768 21.3834C22.2204 22.4003 22.2103 23.4196 22.2014 24.4379C22.1973 24.9151 22.208 25.393 22.2375 25.8692C22.2634 26.2839 22.2995 26.6996 22.3676 27.1095C22.4273 27.4702 22.5192 27.8257 22.6205 28.1771C22.7706 28.6982 23.0519 29.2125 23.502 29.5319C23.6568 29.6418 23.8327 29.723 24.0181 29.7645C24.6048 29.8962 25.2249 29.5999 25.6842 29.2579C26.1714 28.8951 26.6961 28.4813 27.1045 28.0136L28.4841 26.4332C28.7557 26.9069 29.0488 27.3692 29.299 27.8546C29.5435 28.3286 29.7491 28.822 29.9668 29.3091C30.0777 29.5572 30.1854 29.9613 29.9936 30.2019C29.9794 30.2199 29.9635 30.2363 29.9463 30.2515Z" fill="white"/>
</g>
<defs>
<clipPath id="clip0_34_14899">
<rect width="30" height="30" fill="white" transform="translate(21.2891 4) rotate(35.1898)"/>
</clipPath>
</defs>
</svg>
