<svg width="533" height="359" viewBox="0 0 533 359" fill="none" xmlns="http://www.w3.org/2000/svg">
  <defs>
    <linearGradient id="bg" x1="0" y1="0" x2="533" y2="359" gradientUnits="userSpaceOnUse">
      <stop stop-color="#0D1025"/>
      <stop offset="1" stop-color="#5B3FD6"/>
    </linearGradient>
  </defs>
  <rect width="533" height="359" rx="18" fill="url(#bg)"/>
  <circle cx="455" cy="68" r="76" fill="#FFFFFF" fill-opacity="0.07"/>
  <circle cx="109" cy="284" r="92" fill="#FFFFFF" fill-opacity="0.05"/>
  <g stroke="#9BE7FF" stroke-opacity="0.9" stroke-width="3">
    <path d="M148 118L220 156L192 224L120 188Z"/>
    <path d="M220 156L304 118L348 175L270 232L192 224"/>
    <path d="M304 118L379 148L348 175"/>
    <circle cx="148" cy="118" r="7" fill="#9BE7FF"/>
    <circle cx="220" cy="156" r="7" fill="#9BE7FF"/>
    <circle cx="192" cy="224" r="7" fill="#9BE7FF"/>
    <circle cx="304" cy="118" r="7" fill="#9BE7FF"/>
    <circle cx="348" cy="175" r="7" fill="#9BE7FF"/>
    <circle cx="379" cy="148" r="7" fill="#9BE7FF"/>
    <circle cx="270" cy="232" r="7" fill="#9BE7FF"/>
  </g>
  <rect x="345" y="80" width="98" height="98" rx="18" fill="#FFFFFF" fill-opacity="0.10" stroke="#CBBEFF" stroke-opacity="0.55"/>
  <path d="M379 100V158M351 128H407M362 112L396 146M396 112L362 146" stroke="#CBBEFF" stroke-width="6" stroke-linecap="round"/>
</svg>
